<?xml version="1.0" standalone="no"?><!DOCTYPE svg PUBLIC "-//W3C//DTD SVG 1.1//EN" "http://www.w3.org/Graphics/SVG/1.1/DTD/svg11.dtd"><svg t="1731401102018" class="icon" viewBox="0 0 1024 1024" version="1.1" xmlns="http://www.w3.org/2000/svg" p-id="9559" xmlns:xlink="http://www.w3.org/1999/xlink" width="200" height="200"><path d="M512 7.013699C232.854795 7.013699 7.013699 232.854795 7.013699 512s225.841096 504.986301 504.986301 504.986301 504.986301-225.841096 504.986301-504.986301-227.243836-504.986301-504.986301-504.986301z m0 939.835616c-239.868493 0-434.849315-194.980822-434.849315-434.849315s194.980822-434.849315 434.849315-434.849315 434.849315 194.980822 434.849315 434.849315-196.383562 434.849315-434.849315 434.849315z" fill="#464646" p-id="9560"></path><path d="M576.526027 531.638356c1.40274-5.610959 2.805479-12.624658 2.80548-19.638356 0-26.652055-15.430137-50.49863-37.873973-63.123288V172.536986c0-19.638356-15.430137-35.068493-35.068493-35.068493s-35.068493 15.430137-35.068493 35.068493V448.876712c-22.443836 12.624658-37.873973 35.068493-37.873973 63.123288 0 39.276712 32.263014 72.942466 72.942466 72.942466 7.013699 0 14.027397-1.40274 19.638356-2.80548l136.065754 136.065754c7.013699 7.013699 15.430137 9.819178 25.249315 9.819178s18.235616-2.805479 25.249315-9.819178c14.027397-14.027397 14.027397-36.471233 0-49.095891l-136.065754-137.468493z" fill="#464646" p-id="9561"></path></svg>